<svg class="chart" width="360" height="180">
  <g id="graph1">
    <g class="links">
      <line class="link" x1="160" y1="90" x2="146.63118960624632" y2="48.85503233952688"/>
      <line class="link" x1="160" y1="90" x2="111.63118960624632" y2="23.42604385933926"/>
      <line class="link" x1="146.63118960624632" y1="48.85503233952688" x2="111.63118960624632" y2="23.42604385933926"/>
      <line class="link" x1="146.63118960624632" y1="48.85503233952688" x2="68.36881039375369" y2="23.426043859339245"/>
      <line class="link" x1="111.63118960624632" y1="23.42604385933926" x2="68.36881039375369" y2="23.426043859339245"/>
      <line class="link" x1="111.63118960624632" y1="23.42604385933926" x2="33.368810393753684" y2="48.85503233952687"/>
      <line class="link" x1="68.36881039375369" y1="23.426043859339245" x2="33.368810393753684" y2="48.85503233952687"/>
      <line class="link" x1="68.36881039375369" y1="23.426043859339245" x2="20" y2="89.99999999999999"/>
      <line class="link" x1="33.368810393753684" y1="48.85503233952687" x2="20" y2="89.99999999999999"/>
      <line class="link" x1="33.368810393753684" y1="48.85503233952687" x2="33.36881039375368" y2="131.14496766047313"/>
      <line class="link" x1="20" y1="89.99999999999999" x2="33.36881039375368" y2="131.14496766047313"/>
      <line class="link" x1="20" y1="89.99999999999999" x2="68.36881039375368" y2="156.57395614066075"/>
      <line class="link" x1="33.36881039375368" y1="131.14496766047313" x2="68.36881039375368" y2="156.57395614066075"/>
      <line class="link" x1="33.36881039375368" y1="131.14496766047313" x2="111.63118960624631" y2="156.57395614066075"/>
      <line class="link" x1="68.36881039375368" y1="156.57395614066075" x2="111.63118960624631" y2="156.57395614066075"/>
      <line class="link" x1="68.36881039375368" y1="156.57395614066075" x2="146.63118960624632" y2="131.14496766047313"/>
      <line class="link" x1="111.63118960624631" y1="156.57395614066075" x2="146.63118960624632" y2="131.14496766047313"/>
      <line class="link" x1="111.63118960624631" y1="156.57395614066075" x2="160" y2="90"/>
      <line class="link" x1="146.63118960624632" y1="131.14496766047313" x2="160" y2="90"/>
      <line class="link" x1="146.63118960624632" y1="131.14496766047313" x2="146.63118960624632" y2="48.85503233952688"/>
    </g>
    <g class="nodes">
      <circle class="node" r="10" cx="160" cy="90"/>
      <circle class="node" r="10" cx="146.63118960624632" cy="48.85503233952688"/>
      <circle class="node" r="10" cx="111.63118960624632" cy="23.42604385933926"/>
      <circle class="node" r="10" cx="68.36881039375369" cy="23.426043859339245"/>
      <circle class="node" r="10" cx="33.368810393753684" cy="48.85503233952687"/>
      <circle class="node" r="10" cx="20" cy="89.99999999999999"/>
      <circle class="node" r="10" cx="33.36881039375368" cy="131.14496766047313"/>
      <circle class="node" r="10" cx="68.36881039375368" cy="156.57395614066075"/>
      <circle class="node" r="10" cx="111.63118960624631" cy="156.57395614066075"/>
      <circle class="node" r="10" cx="146.63118960624632" cy="131.14496766047313"/>
    </g>
  </g>
  <g id="graph2">
    <g class="links">
      <line class="link" x1="270" y1="90" x2="340" y2="90"/>
      <line class="link" x1="270" y1="90" x2="326.6311896062463" y2="48.85503233952688"/>
      <line class="link" x1="270" y1="90" x2="291.6311896062463" y2="23.42604385933926"/>
      <line class="link" x1="270" y1="90" x2="248.36881039375368" y2="23.426043859339245"/>
      <line class="link" x1="270" y1="90" x2="213.36881039375368" y2="48.85503233952687"/>
      <line class="link" x1="270" y1="90" x2="200" y2="89.99999999999999"/>
      <line class="link" x1="270" y1="90" x2="213.36881039375368" y2="131.14496766047313"/>
      <line class="link" x1="270" y1="90" x2="248.36881039375368" y2="156.57395614066075"/>
      <line class="link" x1="270" y1="90" x2="291.6311896062463" y2="156.57395614066075"/>
      <line class="link" x1="270" y1="90" x2="326.6311896062463" y2="131.14496766047313"/>
      <line class="link" x1="340" y1="90" x2="326.6311896062463" y2="48.85503233952688"/>
      <line class="link" x1="326.6311896062463" y1="48.85503233952688" x2="291.6311896062463" y2="23.42604385933926"/>
      <line class="link" x1="291.6311896062463" y1="23.42604385933926" x2="248.36881039375368" y2="23.426043859339245"/>
      <line class="link" x1="248.36881039375368" y1="23.426043859339245" x2="213.36881039375368" y2="48.85503233952687"/>
      <line class="link" x1="213.36881039375368" y1="48.85503233952687" x2="200" y2="89.99999999999999"/>
      <line class="link" x1="200" y1="89.99999999999999" x2="213.36881039375368" y2="131.14496766047313"/>
      <line class="link" x1="213.36881039375368" y1="131.14496766047313" x2="248.36881039375368" y2="156.57395614066075"/>
      <line class="link" x1="248.36881039375368" y1="156.57395614066075" x2="291.6311896062463" y2="156.57395614066075"/>
      <line class="link" x1="291.6311896062463" y1="156.57395614066075" x2="326.6311896062463" y2="131.14496766047313"/>
      <line class="link" x1="326.6311896062463" y1="131.14496766047313" x2="340" y2="90"/>
    </g>
    <g class="nodes">
      <circle class="node" r="10" cx="340" cy="90"/>
      <circle class="node" r="10" cx="326.6311896062463" cy="48.85503233952688"/>
      <circle class="node" r="10" cx="291.6311896062463" cy="23.42604385933926"/>
      <circle class="node" r="10" cx="248.36881039375368" cy="23.426043859339245"/>
      <circle class="node" r="10" cx="213.36881039375368" cy="48.85503233952687"/>
      <circle class="node" r="10" cx="200" cy="89.99999999999999"/>
      <circle class="node" r="10" cx="213.36881039375368" cy="131.14496766047313"/>
      <circle class="node" r="10" cx="248.36881039375368" cy="156.57395614066075"/>
      <circle class="node" r="10" cx="291.6311896062463" cy="156.57395614066075"/>
      <circle class="node" r="10" cx="326.6311896062463" cy="131.14496766047313"/>
      <circle class="node" r="10" cx="270" cy="90"/>
    </g>
  </g>
</svg>
