<svg class="chart" width="380" height="180">
  <g id="graph1">
    <g class="links">
      <circle class="link" r="10" cx="141.6" cy="31.799999999999997"/>
    </g>
    <g class="links">
      <path class="link" d="M145.2, 126 A79.28177596396287,79.28177596396287 0 0,1141.6, 46.8"/>
      <path class="link" d="M141.6, 46.8 A79.28177596396287,79.28177596396287 0 0,1145.2, 126"/>
    </g>
    <g class="links">
      <line class="link" x1="145.2" y1="126" x2="54.8" y2="76"/>
      <line class="link" x1="145.2" y1="126" x2="86.3" y2="162.7"/>
      <line class="link" x1="54.8" y1="76" x2="141.6" y2="46.8"/>
    </g>
    <g class="nodes">
      <circle class="node" r="10" cx="145.2" cy="126"/>
      <circle class="node" r="10" cx="141.6" cy="46.8"/>
      <circle class="node" r="10" cx="54.8" cy="76"/>
      <circle class="node" r="10" cx="86.3" cy="162.7"/>
    </g>
  </g>
  <g id="graph2">
    <g class="links">
      <line class="link" x1="335.2" y1="126" x2="331.6" y2="46.8"/>
      <line class="link" x1="335.2" y1="126" x2="244.8" y2="76"/>
      <line class="link" x1="335.2" y1="126" x2="276.3" y2="162.7"/>
      <line class="link" x1="331.6" y1="46.8" x2="244.8" y2="76"/>
    </g>
    <g class="nodes">
      <circle class="node" r="10" cx="335.2" cy="126"/>
      <circle class="node" r="10" cx="331.6" cy="46.8"/>
      <circle class="node" r="10" cx="244.8" cy="76"/>
      <circle class="node" r="10" cx="276.3" cy="162.7"/>
    </g>
  </g>
</svg>
